<svg id="svg" version="1.1" xmlns="http://www.w3.org/2000/svg" xmlns:xlink="http://www.w3.org/1999/xlink" width="400" height="251.98517734250927" viewBox="0, 0, 400,251.98517734250927"><g id="svgg"><path id="path0" d="M64.584 4.468 L 35.257 6.346 31.598 7.188 L 27.939 8.031 25.986 9.452 C 24.415 10.596,23.759 11.253,22.627 12.817 L 21.219 14.761 20.427 18.129 L 19.635 21.497 21.353 69.375 C 22.298 95.707,23.127 117.395,23.194 117.569 C 23.335 117.938,22.389 118.152,20.592 118.155 C 19.980 118.157,17.901 118.538,15.973 119.002 L 12.468 119.846 10.522 121.262 C 8.958 122.401,8.300 123.060,7.169 124.623 L 5.762 126.566 4.969 129.934 L 4.177 133.302 5.900 181.156 L 7.623 229.010 8.427 232.292 C 9.917 238.374,13.012 241.538,18.917 243.013 L 21.916 243.762 51.879 244.778 L 81.842 245.795 85.427 244.956 C 88.584 244.218,89.115 244.146,89.874 244.356 C 90.405 244.502,94.818 244.672,101.361 244.798 L 111.987 245.002 115.466 244.186 C 118.577 243.456,119.075 243.276,120.174 242.489 C 121.694 241.401,121.529 241.380,122.501 242.791 C 124.128 245.153,126.751 246.704,130.685 247.630 L 134.002 248.411 147.308 247.116 C 160.844 245.798,166.078 245.003,167.639 244.026 C 167.971 243.819,169.247 243.711,172.192 243.642 C 174.442 243.589,187.528 243.293,201.271 242.983 L 226.257 242.419 229.316 241.715 L 232.375 241.010 233.233 241.592 C 233.845 242.006,235.044 242.397,237.403 242.951 L 240.713 243.728 269.165 243.083 C 292.553 242.552,297.906 242.377,299.238 242.099 C 300.811 241.771,300.880 241.774,301.568 242.196 C 301.957 242.435,303.719 242.974,305.482 243.393 L 308.687 244.155 319.016 244.352 L 329.345 244.548 332.798 243.732 C 336.461 242.867,338.704 241.671,340.364 239.698 L 340.900 239.061 342.730 240.370 C 344.521 241.650,344.632 241.696,347.876 242.475 L 351.191 243.270 362.737 242.245 C 374.728 241.181,379.738 240.398,381.366 239.336 C 383.732 237.793,384.996 236.638,386.297 234.832 L 387.693 232.894 388.542 229.258 L 389.391 225.622 392.490 178.448 L 395.589 131.275 394.763 127.840 C 392.935 120.235,387.398 116.282,378.539 116.258 L 376.242 116.252 376.375 115.034 C 376.448 114.365,377.456 102.856,378.614 89.460 L 380.719 65.102 379.906 61.685 C 379.103 58.317,377.775 55.685,376.184 54.314 C 375.999 54.156,376.092 53.440,376.554 51.456 L 377.171 48.809 375.452 33.139 C 373.364 14.110,373.023 12.268,371.044 9.355 C 368.581 5.732,366.723 4.485,362.126 3.369 L 358.814 2.566 329.169 4.468 C 301.310 6.255,299.460 6.350,298.465 6.047 C 297.882 5.869,296.185 5.437,294.693 5.085 L 291.979 4.447 279.186 4.447 L 266.392 4.447 263.164 5.205 C 261.388 5.622,259.838 6.019,259.719 6.086 C 259.600 6.154,258.686 6.803,257.689 7.528 L 255.875 8.847 254.879 8.124 C 254.057 7.528,253.282 7.257,250.435 6.574 L 246.988 5.746 234.399 5.860 L 221.810 5.975 218.399 6.775 L 214.988 7.575 212.470 6.965 C 210.011 6.369,209.707 6.347,199.365 6.003 L 188.777 5.651 185.389 6.450 L 182.001 7.249 179.958 8.711 C 178.834 9.516,177.767 10.398,177.588 10.672 L 177.261 11.171 174.761 10.570 L 172.260 9.968 142.615 9.961 L 112.970 9.953 110.759 10.489 C 109.013 10.912,108.515 10.967,108.393 10.753 C 105.998 6.553,103.264 4.525,98.426 3.360 C 96.557 2.909,94.776 2.552,94.470 2.566 C 94.163 2.579,80.715 3.435,64.584 4.468 M96.902 33.192 C 97.839 41.781,98.551 48.867,98.483 48.937 C 98.415 49.007,94.595 48.750,89.995 48.364 C 85.394 47.979,81.315 47.659,80.929 47.654 L 80.227 47.644 80.378 43.303 L 80.529 38.962 79.703 38.952 C 79.249 38.946,73.923 38.673,67.867 38.345 C 61.810 38.016,56.812 37.786,56.759 37.834 C 56.631 37.948,60.261 100.141,60.404 100.284 C 60.543 100.423,82.933 99.881,83.075 99.735 C 83.226 99.581,84.091 84.444,83.957 84.310 C 83.894 84.247,80.979 84.365,77.478 84.572 C 73.977 84.778,71.071 84.906,71.020 84.855 C 70.932 84.767,71.572 64.748,71.666 64.639 C 71.765 64.524,101.888 64.973,102.006 65.091 C 102.157 65.241,97.573 118.523,97.383 118.830 C 97.275 119.005,38.121 117.225,38.008 117.043 C 37.952 116.953,34.568 21.494,34.619 21.434 C 34.689 21.351,92.137 17.630,93.814 17.600 L 95.198 17.575 96.902 33.192 M360.534 33.192 C 361.471 41.781,362.182 48.867,362.114 48.937 C 362.046 49.007,358.227 48.750,353.626 48.364 C 349.026 47.979,344.946 47.659,344.560 47.654 L 343.859 47.644 344.009 43.303 L 344.160 38.962 343.335 38.952 C 342.881 38.946,337.554 38.673,331.498 38.345 C 325.442 38.016,320.444 37.786,320.391 37.834 C 320.263 37.948,323.892 100.141,324.036 100.284 C 324.174 100.423,346.564 99.881,346.707 99.735 C 346.858 99.581,347.723 84.444,347.588 84.310 C 347.526 84.247,344.611 84.365,341.110 84.572 C 337.609 84.778,334.703 84.906,334.652 84.855 C 334.564 84.767,335.203 64.748,335.297 64.639 C 335.397 64.524,365.520 64.973,365.638 65.091 C 365.788 65.241,361.204 118.523,361.015 118.830 C 360.907 119.005,301.752 117.225,301.640 117.043 C 301.584 116.953,298.200 21.494,298.251 21.434 C 298.321 21.351,355.769 17.630,357.445 17.600 L 358.829 17.575 360.534 33.192 M291.854 19.428 C 291.937 19.584,285.695 114.388,285.597 114.460 C 285.316 114.667,262.497 116.471,262.390 116.295 C 262.316 116.173,256.919 100.686,250.397 81.879 C 243.875 63.073,238.515 47.708,238.486 47.736 C 238.456 47.764,238.969 63.481,239.624 82.663 C 240.280 101.845,240.764 117.592,240.700 117.656 C 240.636 117.720,235.940 117.702,230.264 117.616 L 219.945 117.460 220.073 112.356 C 220.143 109.549,220.514 87.927,220.896 64.306 C 221.278 40.686,221.648 21.267,221.717 21.155 C 221.796 21.027,226.613 20.932,234.507 20.903 L 247.171 20.858 257.485 47.911 C 263.158 62.790,267.862 75.027,267.939 75.103 C 268.016 75.180,268.026 74.107,267.963 72.719 C 267.899 71.331,267.570 60.000,267.231 47.538 C 266.891 35.077,266.557 23.618,266.488 22.075 L 266.361 19.269 279.065 19.269 C 286.053 19.269,291.808 19.341,291.854 19.428 M201.028 20.996 L 209.891 21.250 209.737 69.121 C 209.653 95.451,209.560 117.020,209.531 117.053 C 209.481 117.111,186.270 116.658,186.204 116.599 C 186.169 116.566,188.606 20.689,188.646 20.568 C 188.660 20.525,189.457 20.547,190.418 20.617 C 191.379 20.686,196.154 20.857,201.028 20.996 M172.374 25.357 C 172.378 25.561,173.889 46.215,175.733 71.255 C 177.576 96.294,179.045 116.825,178.999 116.878 C 178.917 116.971,106.681 114.176,106.608 114.077 C 106.589 114.051,107.936 94.447,109.602 70.513 C 111.268 46.580,112.636 26.546,112.642 25.993 L 112.652 24.987 142.509 24.987 C 170.801 24.987,172.367 25.006,172.374 25.357 M131.619 46.003 C 131.511 46.369,128.076 95.963,128.153 96.024 C 128.288 96.130,154.040 96.957,154.139 96.858 C 154.263 96.734,151.229 46.553,151.089 46.413 C 150.978 46.301,137.043 45.763,133.874 45.749 C 132.307 45.741,131.675 45.813,131.619 46.003 M81.444 144.997 C 82.381 153.587,83.093 160.672,83.025 160.742 C 82.957 160.813,79.137 160.555,74.537 160.170 C 69.936 159.784,65.857 159.465,65.471 159.459 L 64.769 159.449 64.920 155.109 L 65.071 150.768 64.245 150.757 C 63.791 150.751,58.465 150.478,52.409 150.150 C 46.353 149.821,41.354 149.592,41.301 149.639 C 41.173 149.753,44.803 211.946,44.946 212.089 C 45.085 212.228,67.475 211.686,67.617 211.540 C 67.768 211.386,68.633 196.249,68.499 196.115 C 68.437 196.053,65.521 196.171,62.020 196.377 C 58.519 196.584,55.613 196.711,55.562 196.660 C 55.474 196.572,56.114 176.553,56.208 176.444 C 56.308 176.329,86.430 176.778,86.548 176.896 C 86.699 177.046,82.115 230.328,81.925 230.635 C 81.817 230.810,22.663 229.030,22.550 228.848 C 22.494 228.758,19.111 133.300,19.161 133.239 C 19.231 133.156,76.679 129.435,78.356 129.405 L 79.740 129.381 81.444 144.997 M229.531 133.033 C 229.521 136.852,229.167 150.582,229.077 150.646 C 229.040 150.673,218.909 150.537,206.564 150.345 C 194.219 150.152,184.092 150.013,184.060 150.034 C 183.998 150.075,184.968 164.346,185.183 166.548 L 185.307 167.824 201.626 166.804 C 210.602 166.243,217.977 165.815,218.015 165.854 C 218.110 165.948,220.254 185.958,220.178 186.033 C 220.144 186.066,212.660 186.163,203.547 186.248 L 186.977 186.404 186.974 187.379 C 186.971 188.673,187.855 205.063,187.934 205.150 C 187.967 205.187,196.351 204.347,206.565 203.283 C 216.779 202.220,225.171 201.384,225.213 201.426 C 225.342 201.555,226.871 227.196,226.756 227.311 C 226.620 227.448,169.237 228.810,169.107 228.680 C 168.973 228.546,165.908 132.380,166.034 132.254 C 166.090 132.199,180.330 131.684,197.678 131.111 C 215.027 130.538,229.293 130.057,229.381 130.043 C 229.468 130.028,229.536 131.374,229.531 133.033 M301.103 133.033 C 301.093 136.852,300.739 150.582,300.650 150.646 C 300.613 150.673,290.482 150.537,278.137 150.345 C 265.791 150.152,255.664 150.013,255.632 150.034 C 255.570 150.075,256.541 164.346,256.755 166.548 L 256.879 167.824 273.198 166.804 C 282.174 166.243,289.549 165.815,289.587 165.854 C 289.682 165.948,291.826 185.958,291.750 186.033 C 291.716 186.066,284.232 186.163,275.119 186.248 L 258.549 186.404 258.547 187.379 C 258.543 188.673,259.428 205.063,259.506 205.150 C 259.539 205.187,267.924 204.347,278.138 203.283 C 288.352 202.220,296.743 201.384,296.785 201.426 C 296.914 201.555,298.443 227.196,298.329 227.311 C 298.192 227.448,240.809 228.810,240.679 228.680 C 240.545 228.546,237.481 132.380,237.606 132.254 C 237.662 132.199,251.902 131.684,269.251 131.111 C 286.600 130.538,300.866 130.057,300.953 130.043 C 301.040 130.028,301.108 131.374,301.103 133.033 M380.578 131.233 C 380.661 131.389,374.419 226.193,374.322 226.265 C 374.040 226.472,351.221 228.277,351.114 228.100 C 351.040 227.978,345.643 212.491,339.121 193.684 C 332.599 174.878,327.239 159.513,327.210 159.541 C 327.180 159.569,327.693 175.286,328.348 194.468 C 329.004 213.650,329.488 229.397,329.424 229.461 C 329.360 229.525,324.664 229.507,318.988 229.421 L 308.669 229.265 308.797 224.162 C 308.867 221.354,309.238 199.732,309.620 176.111 C 310.002 152.491,310.372 133.073,310.442 132.960 C 310.521 132.832,315.337 132.737,323.232 132.709 L 335.895 132.663 346.209 159.716 C 351.882 174.595,356.587 186.832,356.663 186.909 C 356.740 186.985,356.751 185.912,356.687 184.525 C 356.623 183.137,356.294 171.805,355.955 159.344 C 355.616 146.882,355.281 135.424,355.212 133.880 L 355.085 131.075 367.790 131.075 C 374.777 131.075,380.532 131.146,380.578 131.233 M126.932 134.897 C 141.482 135.594,153.405 136.186,153.427 136.213 C 153.497 136.299,157.342 182.804,157.282 182.849 C 157.251 182.873,154.487 184.311,151.139 186.046 C 147.791 187.781,145.053 189.248,145.054 189.307 C 145.056 189.365,148.614 198.723,152.961 210.103 L 160.864 230.794 159.998 230.913 C 155.423 231.543,133.827 233.463,133.827 233.240 C 133.827 233.087,126.661 194.822,126.523 194.238 L 126.412 193.770 122.126 193.874 C 119.769 193.931,116.578 194.032,115.034 194.099 L 112.229 194.220 112.229 212.122 L 112.229 230.023 101.588 229.868 C 95.736 229.782,90.935 229.697,90.919 229.679 C 90.892 229.648,96.504 133.597,96.542 133.437 C 96.551 133.397,97.440 133.424,98.518 133.498 C 99.595 133.571,112.381 134.201,126.932 134.897 M112.811 152.409 C 112.726 152.580,113.500 176.034,113.593 176.130 C 113.665 176.203,131.155 175.367,132.927 175.206 L 134.251 175.085 134.251 163.668 L 134.251 152.250 123.570 152.250 C 117.695 152.250,112.854 152.321,112.811 152.409 " stroke="none" fill="#9304d3" fill-rule="evenodd"></path><path id="path1" d="M63.549 19.500 C 47.665 20.531,34.646 21.402,34.619 21.434 C 34.568 21.494,37.952 116.953,38.008 117.043 C 38.121 117.225,97.275 119.005,97.383 118.830 C 97.573 118.523,102.157 65.241,102.006 65.091 C 101.888 64.973,71.765 64.524,71.666 64.639 C 71.572 64.748,70.932 84.767,71.020 84.855 C 71.071 84.906,73.977 84.778,77.478 84.572 C 80.979 84.365,83.894 84.247,83.957 84.310 C 84.091 84.444,83.226 99.581,83.075 99.735 C 82.933 99.881,60.543 100.423,60.404 100.284 C 60.261 100.141,56.631 37.948,56.759 37.834 C 56.812 37.786,61.810 38.016,67.867 38.345 C 73.923 38.673,79.249 38.946,79.703 38.952 L 80.529 38.962 80.378 43.303 L 80.227 47.644 80.929 47.654 C 81.315 47.659,85.394 47.979,89.995 48.364 C 94.595 48.750,98.415 49.007,98.483 48.937 C 98.551 48.867,97.839 41.781,96.902 33.192 L 95.198 17.575 93.814 17.600 C 93.053 17.614,79.434 18.468,63.549 19.500 M327.181 19.500 C 311.296 20.531,298.278 21.402,298.251 21.434 C 298.200 21.494,301.584 116.953,301.640 117.043 C 301.752 117.225,360.907 119.005,361.015 118.830 C 361.204 118.523,365.788 65.241,365.638 65.091 C 365.520 64.973,335.397 64.524,335.297 64.639 C 335.203 64.748,334.564 84.767,334.652 84.855 C 334.703 84.906,337.609 84.778,341.110 84.572 C 344.611 84.365,347.526 84.247,347.588 84.310 C 347.723 84.444,346.858 99.581,346.707 99.735 C 346.564 99.881,324.174 100.423,324.036 100.284 C 323.892 100.141,320.263 37.948,320.391 37.834 C 320.444 37.786,325.442 38.016,331.498 38.345 C 337.554 38.673,342.881 38.946,343.335 38.952 L 344.160 38.962 344.009 43.303 L 343.859 47.644 344.560 47.654 C 344.946 47.659,349.026 47.979,353.626 48.364 C 358.227 48.750,362.046 49.007,362.114 48.937 C 362.182 48.867,361.471 41.781,360.534 33.192 L 358.829 17.575 357.445 17.600 C 356.684 17.614,343.065 18.468,327.181 19.500 M266.488 22.075 C 266.557 23.618,266.891 35.077,267.231 47.538 C 267.570 60.000,267.899 71.331,267.963 72.719 C 268.026 74.107,268.016 75.180,267.939 75.103 C 267.862 75.027,263.158 62.790,257.485 47.911 L 247.171 20.858 234.507 20.903 C 226.613 20.932,221.796 21.027,221.717 21.155 C 221.648 21.267,221.278 40.686,220.896 64.306 C 220.514 87.927,220.143 109.549,220.073 112.356 L 219.945 117.460 230.264 117.616 C 235.940 117.702,240.636 117.720,240.700 117.656 C 240.764 117.592,240.280 101.845,239.624 82.663 C 238.969 63.481,238.456 47.764,238.486 47.736 C 238.515 47.708,243.875 63.073,250.397 81.879 C 256.919 100.686,262.316 116.173,262.390 116.295 C 262.497 116.471,285.316 114.667,285.597 114.460 C 285.695 114.388,291.937 19.584,291.854 19.428 C 291.808 19.341,286.053 19.269,279.065 19.269 L 266.361 19.269 266.488 22.075 M188.646 20.568 C 188.606 20.689,186.169 116.566,186.204 116.599 C 186.270 116.658,209.481 117.111,209.531 117.053 C 209.560 117.020,209.653 95.451,209.737 69.121 L 209.891 21.250 201.028 20.996 C 196.154 20.857,191.379 20.686,190.418 20.617 C 189.457 20.547,188.660 20.525,188.646 20.568 M112.642 25.993 C 112.636 26.546,111.268 46.580,109.602 70.513 C 107.936 94.447,106.589 114.051,106.608 114.077 C 106.681 114.176,178.917 116.971,178.999 116.878 C 179.045 116.825,177.576 96.294,175.733 71.255 C 173.889 46.215,172.378 25.561,172.374 25.357 C 172.367 25.006,170.801 24.987,142.509 24.987 L 112.652 24.987 112.642 25.993 M143.523 46.038 C 147.632 46.192,151.037 46.361,151.089 46.413 C 151.229 46.553,154.263 96.734,154.139 96.858 C 154.040 96.957,128.288 96.130,128.153 96.024 C 128.076 95.963,131.511 46.369,131.619 46.003 C 131.718 45.666,133.724 45.672,143.523 46.038 M48.091 131.305 C 32.207 132.337,19.188 133.207,19.161 133.239 C 19.111 133.300,22.494 228.758,22.550 228.848 C 22.663 229.030,81.817 230.810,81.925 230.635 C 82.115 230.328,86.699 177.046,86.548 176.896 C 86.430 176.778,56.308 176.329,56.208 176.444 C 56.114 176.553,55.474 196.572,55.562 196.660 C 55.613 196.711,58.519 196.584,62.020 196.377 C 65.521 196.171,68.437 196.053,68.499 196.115 C 68.633 196.249,67.768 211.386,67.617 211.540 C 67.475 211.686,45.085 212.228,44.946 212.089 C 44.803 211.946,41.173 149.753,41.301 149.639 C 41.354 149.592,46.353 149.821,52.409 150.150 C 58.465 150.478,63.791 150.751,64.245 150.757 L 65.071 150.768 64.920 155.109 L 64.769 159.449 65.471 159.459 C 65.857 159.465,69.936 159.784,74.537 160.170 C 79.137 160.555,82.957 160.813,83.025 160.742 C 83.093 160.672,82.381 153.587,81.444 144.997 L 79.740 129.381 78.356 129.405 C 77.595 129.419,63.976 130.274,48.091 131.305 M197.678 131.111 C 180.330 131.684,166.090 132.199,166.034 132.254 C 165.908 132.380,168.973 228.546,169.107 228.680 C 169.237 228.810,226.620 227.448,226.756 227.311 C 226.871 227.196,225.342 201.555,225.213 201.426 C 225.171 201.384,216.779 202.220,206.565 203.283 C 196.351 204.347,187.967 205.187,187.934 205.150 C 187.855 205.063,186.971 188.673,186.974 187.379 L 186.977 186.404 203.547 186.248 C 212.660 186.163,220.144 186.066,220.178 186.033 C 220.254 185.958,218.110 165.948,218.015 165.854 C 217.977 165.815,210.602 166.243,201.626 166.804 L 185.307 167.824 185.183 166.548 C 184.968 164.346,183.998 150.075,184.060 150.034 C 184.092 150.013,194.219 150.152,206.564 150.345 C 218.909 150.537,229.040 150.673,229.077 150.646 C 229.325 150.469,229.626 130.001,229.381 130.043 C 229.293 130.057,215.027 130.538,197.678 131.111 M269.251 131.111 C 251.902 131.684,237.662 132.199,237.606 132.254 C 237.481 132.380,240.545 228.546,240.679 228.680 C 240.809 228.810,298.192 227.448,298.329 227.311 C 298.443 227.196,296.914 201.555,296.785 201.426 C 296.743 201.384,288.352 202.220,278.138 203.283 C 267.924 204.347,259.539 205.187,259.506 205.150 C 259.428 205.063,258.543 188.673,258.547 187.379 L 258.549 186.404 275.119 186.248 C 284.232 186.163,291.716 186.066,291.750 186.033 C 291.826 185.958,289.682 165.948,289.587 165.854 C 289.549 165.815,282.174 166.243,273.198 166.804 L 256.879 167.824 256.755 166.548 C 256.541 164.346,255.570 150.075,255.632 150.034 C 255.664 150.013,265.791 150.152,278.137 150.345 C 290.482 150.537,300.613 150.673,300.650 150.646 C 300.897 150.469,301.198 130.001,300.953 130.043 C 300.866 130.057,286.600 130.538,269.251 131.111 M355.212 133.880 C 355.281 135.424,355.616 146.882,355.955 159.344 C 356.294 171.805,356.623 183.137,356.687 184.525 C 356.751 185.912,356.740 186.985,356.663 186.909 C 356.587 186.832,351.882 174.595,346.209 159.716 L 335.895 132.663 323.232 132.709 C 315.337 132.737,310.521 132.832,310.442 132.960 C 310.372 133.073,310.002 152.491,309.620 176.111 C 309.238 199.732,308.867 221.354,308.797 224.162 L 308.669 229.265 318.988 229.421 C 324.664 229.507,329.360 229.525,329.424 229.461 C 329.488 229.397,329.004 213.650,328.348 194.468 C 327.693 175.286,327.180 159.569,327.210 159.541 C 327.239 159.513,332.599 174.878,339.121 193.684 C 345.643 212.491,351.040 227.978,351.114 228.100 C 351.221 228.277,374.040 226.472,374.322 226.265 C 374.419 226.193,380.661 131.389,380.578 131.233 C 380.532 131.146,374.777 131.075,367.790 131.075 L 355.085 131.075 355.212 133.880 M96.542 133.437 C 96.504 133.597,90.892 229.648,90.919 229.679 C 90.935 229.697,95.736 229.782,101.588 229.868 L 112.229 230.023 112.229 212.122 L 112.229 194.220 115.034 194.099 C 116.578 194.032,119.769 193.931,122.126 193.874 L 126.412 193.770 126.523 194.238 C 126.661 194.822,133.827 233.087,133.827 233.240 C 133.827 233.463,155.423 231.543,159.998 230.913 L 160.864 230.794 152.961 210.103 C 148.614 198.723,145.056 189.365,145.054 189.307 C 145.053 189.248,147.791 187.781,151.139 186.046 C 154.487 184.311,157.251 182.873,157.282 182.849 C 157.342 182.804,153.497 136.299,153.427 136.213 C 153.405 136.186,141.482 135.594,126.932 134.897 C 112.381 134.201,99.595 133.571,98.518 133.498 C 97.440 133.424,96.551 133.397,96.542 133.437 M134.251 163.668 L 134.251 175.085 132.927 175.206 C 131.155 175.367,113.665 176.203,113.593 176.130 C 113.500 176.034,112.726 152.580,112.811 152.409 C 112.854 152.321,117.695 152.250,123.570 152.250 L 134.251 152.250 134.251 163.668 " stroke="none" fill="#04cb14" fill-rule="evenodd"></path></g></svg>